:SAMPLES-PER-SECOND 30
:FULLY-SPECIFIED
:DEGREES
284
root  -6.75759 39.8976 8.50348 62.1657 -86.1353 -64.1591
RightUpLeg  -15.21 -9.44626 -8.15684
RightLeg  34.8896 1.18205 0.770983
RightFoot  7.60806 -1.35214 8.37419
RightToes  5.82063e-011 0 -3.6325e-017
Spine  19.6715 0.846339 -2.24857
Spine1  -0.208311 -0.490099 5.16494
HEad  -7.11588 0.389812 -2.09262
LeftShoulder1  2.4007 -5.07838 -21.6267
LeftArm  -18.2446 11.5261 -48.3047
LeftForeArm  88.1957 -74.8411 -129.412
LeftHand  1.67582 9.52213 43.9472
RightShoulder  1.72927 2.93391 20.5437
RightArm  -31.9284 -21.6026 30.8217
RightForeArm  121.69 64.109 154.914
RightHand  -1.49551 -1.09528 -39.1857
LeftUpLeg  -14.4992 -5.32074 13.6649
LeftLeg  34.4729 23.0512 16.5322
LeftFoot  6.78887 0.460461 -2.51358
LeftToes  3.99265e-010 -1.33173e-010 6.75004e-011
285
root  -6.97558 39.8427 8.79419 45.7769 -85.7415 -47.3586
RightUpLeg  -12.8498 -5.81779 -13.4368
RightLeg  29.9005 -8.44245 -5.38806
RightFoot  10.2239 -0.614523 3.76177
RightToes  5.82063e-011 0 -3.6325e-017
Spine  17.7278 1.24313 -2.22626
Spine1  -0.265421 -0.0890074 5.26745
HEad  -4.89963 -2.00558 -2.2503
LeftShoulder1  2.3408 -4.88036 -21.5688
LeftArm  -18.6699 14.1692 -46.6972
LeftForeArm  108.16 -69.3022 -146.55
LeftHand  1.90408 9.93364 45.2927
RightShoulder  1.71215 2.87739 20.5117
RightArm  -31.5371 -22.8958 29.9572
RightForeArm  130.943 60.2538 159.181
RightHand  -1.31686 -1.51775 -38.3532
LeftUpLeg  -10.69 -4.8013 16.6201
LeftLeg  28.2055 18.9324 11.1233
LeftFoot  7.21291 1.87953 -12.2787
LeftToes  3.99265e-010 -1.33173e-010 6.75004e-011
286
root  -7.20284 39.4669 9.16487 13.909 -84.2172 -15.0525
RightUpLeg  -9.8306 -4.59583 -19.8357
RightLeg  25.0046 -15.694 -8.1396
RightFoot  17.9505 -0.400512 1.84782
RightToes  5.82063e-011 0 -3.6325e-017
Spine  15.3122 0.676867 -2.29412
Spine1  0.263196 -0.497459 4.26378
HEad  -3.10939 -4.55795 -2.11012
LeftShoulder1  2.23867 -4.59559 -21.2695
LeftArm  -17.5879 15.9444 -45.517
LeftForeArm  120.802 -63.6985 -155.31
LeftHand  1.87961 9.86666 45.3539
RightShoulder  1.68402 2.81811 20.3035
RightArm  -29.6678 -24.7845 31.2647
RightForeArm  141.287 57.0373 162.254
RightHand  -1.20772 -1.74214 -37.4179
LeftUpLeg  -8.38223 -4.41059 16.4947
LeftLeg  22.5054 8.92958 4.3229
LeftFoot  1.38075 2.7131 -23.8598
LeftToes  3.99265e-010 -1.33173e-010 6.75004e-011
287
root  -7.36348 39.043 9.46941 -4.36779 -81.1814 3.10651
RightUpLeg  -5.70047 -5.19565 -25.2442
RightLeg  20.328 -13.186 -5.57317
RightFoot  22.5101 -1.73549 6.29035
RightToes  5.82063e-011 0 -3.6325e-017
Spine  13.1806 0.0831536 -2.1405
Spine1  1.8832 -0.8256 2.51241
HEad  -1.84362 -7.74806 -1.86017
LeftShoulder1  2.08871 -4.16617 -20.832
LeftArm  -14.713 15.7389 -45.3117
LeftForeArm  133.24 -60.1747 -159.479
LeftHand  1.7696 9.74427 44.0845
RightShoulder  1.60936 2.59347 20.0447
RightArm  -26.8565 -26.8913 33.7923
RightForeArm  151.739 54.9439 164.295
RightHand  -1.08584 -2.02475 -36.5052
LeftUpLeg  -7.49086 -4.64936 14.2875
LeftLeg  20.2748 4.34123 2.08178
LeftFoot  -3.56427 1.72315 -24.3237
LeftToes  3.99265e-010 -1.33173e-010 6.75004e-011
288
root  -7.4654 38.7251 9.49805 -8.28657 -77.9272 6.69219
RightUpLeg  -1.49395 -5.63976 -27.4214
RightLeg  17.4149 -9.95115 -3.6754
RightFoot  19.6883 -3.34168 12.5473
RightToes  5.82063e-011 0 -3.6325e-017
Spine  11.7722 0.0775277 -2.08695
Spine1  3.34993 -0.704768 1.46916
HEad  -0.761442 -11.3923 -1.4099
LeftShoulder1  1.94759 -3.78788 -20.2733
LeftArm  -10.2728 14.4562 -46.4805
LeftForeArm  144.576 -59.5567 -160.854
LeftHand  1.6076 9.53982 42.2181
RightShoulder  1.51787 2.22754 20.1493
RightArm  -23.4375 -28.9604 36.1649
RightForeArm  161.372 55.3136 164.854
RightHand  -0.93623 -2.36171 -35.0895
LeftUpLeg  -7.53904 -5.05404 12.8232
LeftLeg  20.1347 4.62307 2.21341
LeftFoot  -6.31607 0.913226 -19.9281
LeftToes  3.99265e-010 -1.33173e-010 6.75004e-011
289
root  -7.53667 38.4891 9.26015 -6.70469 -74.9147 5.03866
RightUpLeg  1.46827 -5.48525 -26.6425
RightLeg  16.7346 -13.7969 -4.98584
RightFoot  14.4577 -3.40726 15.1732
RightToes  5.82063e-011 0 -3.6325e-017
Spine  11.0246 0.3205 -2.21368
Spine1  3.58312 -0.516994 1.74716
HEad  0.248364 -14.6624 -0.379735
LeftShoulder1  1.89316 -3.72212 -19.7277
LeftArm  -5.11292 13.8685 -48.0867
LeftForeArm  152.291 -61.1082 -160.395
LeftHand  1.22046 8.69333 40.3965
RightShoulder  1.50803 2.06614 20.78
RightArm  -19.6238 -30.5796 37.8894
RightForeArm  168.447 59.1345 163.212
RightHand  -0.937273 -2.26359 -34.0835
LeftUpLeg  -8.48634 -5.49078 13.2858
LeftLeg  20.4717 2.95895 1.55593
LeftFoot  -7.87511 0.635816 -19.4188
LeftToes  3.99265e-010 -1.33173e-010 6.75004e-011
290
root  -7.58649 38.3391 8.92025 -6.13113 -72.4107 4.57413
RightUpLeg  2.90389 -5.40935 -25.546
RightLeg  17.4443 -19.732 -7.27949
RightFoot  11.6758 -2.95553 14.8419
RightToes  5.82063e-011 0 -3.6325e-017
Spine  10.4928 0.347147 -2.4973
Spine1  3.35261 -0.450875 2.04218
HEad  0.925588 -16.8291 1.23115
LeftShoulder1  1.94197 -3.99078 -19.4175
LeftArm  -0.248876 14.5193 -48.5212
LeftForeArm  156.981 -63.616 -158.824
LeftHand  0.736258 7.48046 38.5546
RightShoulder  1.59085 2.25069 21.3939
RightArm  -15.5351 -31.0395 39.6818
RightForeArm  170.305 66.1085 157.818
RightHand  -1.13601 -1.67562 -34.6793
LeftUpLeg  -9.61097 -5.9804 14.0491
LeftLeg  20.4598 -0.417931 0.162928
LeftFoot  -8.21351 0.644429 -21.5352
LeftToes  3.99265e-010 -1.33173e-010 6.75004e-011
291
root  -7.60138 38.2881 8.60028 -7.80943 -70.8829 6.26876
RightUpLeg  3.61981 -5.67832 -25.7565
RightLeg  17.8901 -20.9977 -7.97086
RightFoot  10.9186 -3.11199 16.1107
RightToes  5.82063e-011 0 -3.6325e-017
Spine  9.8484 0.151148 -2.2551
Spine1  3.71793 -0.243017 0.749491
HEad  1.39683 -17.9501 2.71374
LeftShoulder1  2.03802 -4.36808 -19.3955
LeftArm  4.05611 15.669 -47.3748
LeftForeArm  160.815 -66.6366 -156.322
LeftHand  0.362373 6.46412 36.6753
RightShoulder  1.65501 2.49812 21.316
RightArm  -11.2611 -30.2614 42.092
RightForeArm  161.991 74.4514 143.976
RightHand  -1.41882 -0.975581 -36.3592
LeftUpLeg  -9.84261 -6.0572 13.9341
LeftLeg  19.6474 -1.8031 -0.408144
LeftFoot  -7.58349 0.770266 -21.8952
LeftToes  3.99265e-010 -1.33173e-010 6.75004e-011
292
root  -7.5975 38.3072 8.29089 -9.4395 -70.1698 7.87312
RightUpLeg  4.47021 -6.50458 -26.6168
RightLeg  17.0036 -18.4989 -6.98459
RightFoot  10.2669 -3.88675 20.5524
RightToes  5.82063e-011 0 -3.6325e-017
Spine  9.21985 0.013044 -1.16364
Spine1  4.11506 0.264215 -1.94532
HEad  2.2287 -18.611 3.18663
LeftShoulder1  2.10553 -4.59167 -19.5249
LeftArm  8.31702 16.7248 -45.7529
LeftForeArm  164.175 -70.4891 -151.877
LeftHand  0.0362648 5.47552 35.1242
RightShoulder  1.63246 2.55124 20.6528
RightArm  -6.89644 -29.214 44.3738
RightForeArm  128.592 80.5142 106.59
RightHand  -1.71766 -0.29392 -38.0125
LeftUpLeg  -9.07966 -5.09809 13.6503
LeftLeg  17.7299 -2.34929 -0.340739
LeftFoot  -6.8908 0.889243 -21.5914
LeftToes  3.99265e-010 -1.33173e-010 6.75004e-011
293
root  -7.61672 38.3193 7.96838 -9.55795 -69.7345 8.08221
RightUpLeg  5.55001 -8.00795 -27.2005
RightLeg  15.4122 -15.8733 -5.88338
RightFoot  9.32077 -4.63555 25.4013
RightToes  5.82063e-011 0 -3.6325e-017
Spine  8.79062 0.113063 0.0903982
Spine1  3.6116 0.816326 -4.11775
HEad  3.51067 -19.1085 2.50268
LeftShoulder1  2.11945 -4.57095 -19.7822
LeftArm  12.7397 17.6647 -44.6828
LeftForeArm  164.762 -75.1709 -142.92
LeftHand  -0.309691 4.33569 34.0488
RightShoulder  1.58266 2.48257 20.0932
RightArm  -2.67769 -28.7558 45.5393
RightForeArm  78.3606 78.931 53.7618
RightHand  -1.98851 0.278409 -39.4436
LeftUpLeg  -8.20718 -2.22895 13.7355
LeftLeg  15.4377 -5.70233 -0.25258
LeftFoot  -6.54439 1.00526 -22.788
LeftToes  3.99265e-010 -1.33173e-010 6.75004e-011
294
root  -7.67386 38.3176 7.63909 -9.60945 -69.3732 8.29234
RightUpLeg  6.59327 -9.63191 -27.5392
RightLeg  13.8138 -13.907 -5.20467
RightFoot  8.39267 -4.92669 28.1311
RightToes  5.82063e-011 0 -3.6325e-017
Spine  8.44712 0.41457 0.472129
Spine1  2.62673 1.19712 -4.69838
HEad  4.6341 -19.2727 1.45887
LeftShoulder1  2.12032 -4.46582 -20.1638
LeftArm  16.5869 18.5882 -44.1392
LeftForeArm  156.204 -79.6364 -123.865
LeftHand  -0.583224 3.37319 33.1589
RightShoulder  1.56744 2.45298 19.9594
RightArm  0.911413 -28.6303 45.9274
RightForeArm  55.9638 72.472 29.641
RightHand  -2.16805 0.584617 -40.6911
LeftUpLeg  -7.52111 1.2694 13.779
LeftLeg  13.3004 -10.1102 0.0219876
LeftFoot  -5.90274 1.19753 -24.1546
LeftToes  3.99265e-010 -1.33173e-010 6.75004e-011
295
root  -7.73886 38.331 7.32545 -10.6241 -69.2522 9.41946
RightUpLeg  7.43487 -11.0075 -27.7654
RightLeg  12.3092 -12.0519 -4.80831
RightFoot  7.32717 -4.76236 28.7159
RightToes  5.82063e-011 0 -3.6325e-017
Spine  8.05093 0.679717 0.24461
Spine1  1.96529 1.45551 -4.61696
HEad  5.14669 -18.9806 0.935121
LeftShoulder1  2.14941 -4.49167 -20.4612
LeftArm  19.0621 19.4827 -43.5996
LeftForeArm  127.874 -81.6772 -87.0325
LeftHand  -0.779626 2.62979 32.3364
RightShoulder  1.58184 2.48686 20.0575
RightArm  3.47558 -28.2135 46.683
RightForeArm  46.86 64.8092 19.1651
RightHand  -2.26868 0.724321 -41.5254
LeftUpLeg  -6.69501 4.14894 13.5483
LeftLeg  11.1956 -12.6659 0.602246
LeftFoot  -4.71327 1.4567 -24.3484
LeftToes  3.99265e-010 -1.33173e-010 6.75004e-011
296
root  -7.7712 38.3554 7.04738 -11.2808 -69.4691 10.1509
RightUpLeg  8.1071 -12.4338 -27.6086
RightLeg  10.7157 -10.8194 -4.60329
RightFoot  6.14333 -4.38972 28.2829
RightToes  5.82063e-011 0 -3.6325e-017
Spine  7.7537 0.702529 0.668247
Spine1  1.47283 1.64168 -5.10607
HEad  5.21546 -18.3629 1.00206
LeftShoulder1  2.19768 -4.66578 -20.482
LeftArm  20.3469 20.2887 -42.9227
LeftForeArm  93.8184 -79.3368 -49.9798
LeftHand  -0.967894 1.94208 32.0947
RightShoulder  1.6065 2.55073 20.1954
RightArm  5.16341 -27.5473 48.0841
RightForeArm  41.864 56.975 13.5789
RightHand  -2.34013 0.851504 -41.9205
LeftUpLeg  -5.75167 6.60066 13.6109
LeftLeg  9.05005 -14.2324 1.16695
LeftFoot  -3.55318 1.71756 -24.57
LeftToes  3.99265e-010 -1.33173e-010 6.75004e-011
297
root  -7.75662 38.3726 6.79852 -10.737 -69.9959 9.69463
RightUpLeg  8.5424 -13.7109 -27.0572
RightLeg  9.15358 -10.471 -4.31921
RightFoot  5.21689 -4.05083 27.5883
RightToes  5.82063e-011 0 -3.6325e-017
Spine  7.7883 0.570127 1.85664
Spine1  0.648596 1.73487 -5.98248
HEad  5.04572 -17.5269 1.12896
LeftShoulder1  2.23459 -4.84235 -20.3463
LeftArm  20.9792 20.9916 -42.3949
LeftForeArm  72.4078 -74.2016 -30.8364
LeftHand  -1.10307 1.5376 32.7119
RightShoulder  1.63135 2.61913 20.3125
RightArm  6.62105 -26.9552 49.4423
RightForeArm  37.6616 49.8549 10.3906
RightHand  -2.35879 0.88984 -41.9888
LeftUpLeg  -4.97946 8.62702 14.2765
LeftLeg  7.11591 -15.8292 1.52492
LeftFoot  -2.71333 1.97122 -25.5294
LeftToes  3.99265e-010 -1.33173e-010 6.75004e-011
